2.5Hzhigh3min_grf.mot
version=1
nRows=15
nColumns 19
inDegrees=yes
endheader
time	1_ground_force_vx	1_ground_force_vy	1_ground_force_vz	1_ground_force_px	1_ground_force_py	1_ground_force_pz	1_ground_torque_x	1_ground_torque_y	1_ground_torque_z	2_ground_force_vx	2_ground_force_vy	2_ground_force_vz	2_ground_force_px	2_ground_force_py	2_ground_force_pz	2_ground_torque_x	2_ground_torque_y	2_ground_torque_z
            3.751500	            0.046721	            0.178702	            0.367506	           -0.233013	            0.005581	           -0.255695	            0.153199	           -0.018423	            0.001489	            0.284217	           -0.918053	           -0.472686	           -0.232311	            0.006130	           -0.833667	           -0.131522	           -0.000273	           -0.056495
            3.752000	            0.275678	           -0.902062	            0.178876	           -0.233013	            0.005581	           -0.255695	            0.105423	           -0.018334	            0.011420	            0.284279	           -0.918555	           -0.331902	           -0.232311	            0.006130	           -0.833667	           -0.131607	            0.018767	           -0.094128
            3.752500	            0.092078	           -0.901704	            0.087619	           -0.233013	            0.005581	           -0.255695	            0.015496	            0.009211	            0.022741	            0.095529	           -0.550768	           -0.377436	           -0.232311	            0.006130	           -0.833667	           -0.093935	           -0.000272	           -0.018810
            3.753000	            0.092564	            0.178711	            0.367393	           -0.233013	            0.005581	           -0.255695	           -0.015977	           -0.027275	           -0.090165	            0.329052	           -0.365271	           -0.517663	           -0.232311	            0.006130	           -0.833667	           -0.094156	            0.056579	           -0.056308
            3.753500	            0.000420	            1.440946	            0.281319	           -0.233013	            0.005581	           -0.255695	            0.043469	            0.009584	           -0.075311	            0.329032	           -0.365104	           -0.564591	           -0.232311	            0.006130	           -0.833667	           -0.150418	            0.028084	           -0.075236
            3.754000	            0.183989	            0.359387	            0.276226	           -0.233013	            0.005581	           -0.255695	            0.063099	           -0.009056	           -0.011187	            0.003782	           -1.103216	           -0.473223	           -0.232311	            0.006130	           -0.833667	           -0.112806	            0.027884	            0.018999
            3.754500	            0.000503	            0.359548	            0.230825	           -0.233013	            0.005581	           -0.255695	           -0.009908	           -0.037129	            0.037449	            0.045877	            0.186828	           -0.703284	           -0.232311	            0.006130	           -0.833667	           -0.206690	            0.008841	           -0.037579
            3.755000	            0.091995	            0.179694	            0.138113	           -0.233013	            0.005581	           -0.255695	            0.031534	           -0.046083	           -0.015171	            0.046685	            0.001508	           -0.375445	           -0.232311	            0.006130	           -0.833667	           -0.075091	           -0.009858	            0.037699
            3.755500	            0.045744	            0.540806	            0.002205	           -0.233013	            0.005581	           -0.255695	           -0.000529	            0.000343	           -0.073254	           -0.140132	           -0.182647	           -0.563735	           -0.232311	            0.006130	           -0.833667	           -0.169179	            0.027815	           -0.018677
            3.756000	           -0.045031	            0.539215	            0.369280	           -0.233013	            0.005581	           -0.255695	            0.059100	           -0.036970	           -0.002279	            0.045959	            0.186159	           -0.515572	           -0.232311	            0.006130	           -0.833667	           -0.169008	           -0.019449	           -0.018846
            3.756500	            0.092369	           -0.001162	            0.274908	           -0.233013	            0.005581	           -0.255695	            0.063086	            0.000548	           -0.109033	            0.561411	            0.187182	           -0.281151	           -0.232311	            0.006130	           -0.833667	           -0.056322	           -0.009656	           -0.000010
            3.757000	            0.000746	            0.899756	            0.370712	           -0.233013	            0.005581	           -0.255695	            0.021093	           -0.018067	           -0.094152	           -0.140152	           -0.182480	           -0.610663	           -0.232311	            0.006130	           -0.833667	           -0.131599	            0.018700	           -0.075277
            3.757500	            0.413285	            0.539500	            0.322286	           -0.233013	            0.005581	           -0.255695	           -0.032711	           -0.027616	            0.036334	            0.512526	            0.739793	           -0.373016	           -0.232311	            0.006130	           -0.833667	           -0.112712	           -0.000407	            0.000048
            3.758000	           -0.090484	            0.898951	            0.554363	           -0.233013	            0.005581	           -0.255695	            0.032266	           -0.009260	           -0.004061	            0.234832	           -0.182633	           -0.188469	           -0.232311	            0.006130	           -0.833667	           -0.206715	            0.018227	           -0.018695
            3.758500	            0.046769	            0.539036	            0.414908	           -0.233013	            0.005581	           -0.255695	            0.019567	           -0.055340	           -0.017148	            0.141694	           -0.366283	           -0.423727	           -0.232311	            0.006130	           -0.833667	           -0.056441	            0.018836	           -0.037609
